# xmcd
#
# Track frame offsets: 
#        150
#        19647
#        36010
#        49124
#        60070
#        77803
#        96384
#        110120
#        123686
#        143347
#        162615
#        181336
#        200375
#        212914
#        225186
#
# Disc length: 3208 seconds
#
# Revision: 0
# Processed by: cddbd v1.5.2PL0 Copyright (c) Steve Scherf et al.
# Submitted via: ExactAudioCopyFreeDBPlugin 1.0
#
DISCID=c50c860f
DTITLE=The Long Ryders - Final Wild Songs
DYEAR=2016
DGENRE=Country
TTITLE0=Mason-Dixon Line
TTITLE1=Time Keeps Traveling
TTITLE2=(Sweet) Mental Revenge
TTITLE3=Run Dusty Run
TTITLE4=You Don't Know What's Right, You Don't Know What's Wrong
TTITLE5=As God Is My Witness
TTITLE6=Ivory Tower
TTITLE7=I Can't Hide
TTITLE8=Masters Of War
TTITLE9=Wreck Of The 809
TTITLE10=Good Times Tomorrow, Hard Times Today
TTITLE11=Six Days On The Road
TTITLE12=Southside Of The Story
TTITLE13=Still Get By
TTITLE14=Tell It To The Judge On Sunday
EXTD=
EXTT0=
EXTT1=
EXTT2=
EXTT3=
EXTT4=
EXTT5=
EXTT6=
EXTT7=
EXTT8=
EXTT9=
EXTT10=
EXTT11=
EXTT12=
EXTT13=
EXTT14=
PLAYORDER=
